<svg width="802" height="845" viewBox="0 0 802 845" fill="none" xmlns="http://www.w3.org/2000/svg">
<path fill-rule="evenodd" clip-rule="evenodd" d="M453.92 4.583C451.257 10.797 447.282 25.969 445.922 35.112C440.298 72.926 444.678 117.827 457.567 154.508C464.007 172.834 465.908 180.135 465.908 186.546V192.753L463.158 198.182C459.548 205.31 452.933 210.23 442.463 213.578C434.675 216.068 416.156 218.484 414.688 217.201C414.292 216.855 416.893 215.524 420.468 214.242C428.825 211.244 436.744 204.194 439.968 196.882L442.291 191.612L442.182 184.112L442.073 176.612L437.49 160.67C430.66 136.918 428.15 122.603 425.943 94.842L424.928 82.072L423.016 78.324C420.365 73.127 406.247 59.835 392.735 49.814C379.044 39.661 356.949 26.112 354.083 26.112C352.275 26.112 349.908 46.793 349.908 62.588C349.908 96.037 356.109 125.906 367.768 148.612C370.309 153.562 372.519 157.878 372.679 158.203C372.838 158.528 367.892 159.594 361.688 160.571C338.598 164.21 306.07 175.301 281.267 187.992C263.88 196.888 251.541 205.367 241.88 215.058L233.351 223.612L229.487 231.03C224.887 239.86 221.949 250.461 221.925 258.313C221.869 276.945 213.874 289.428 194.637 300.919C168.126 316.754 126.774 330.552 48.5594 349.66C20.0164 356.633 13.3514 358.792 8.14943 362.749C-4.56057 372.416 -2.01957 400.088 13.0954 416.626C15.9934 419.797 20.6094 423.284 24.8834 425.53L31.9084 429.221L31.9234 435.917C31.9784 460.721 49.9574 487.178 75.4084 499.906C79.8084 502.106 85.9304 504.421 89.0124 505.05L94.6164 506.193L95.7504 509.979C97.3374 515.277 103.985 525.161 107.836 527.95C109.612 529.236 111.257 530.096 111.491 529.862C111.726 529.628 111.465 527.051 110.913 524.137C110.36 521.223 109.908 516.263 109.908 513.115V507.391L114.658 506.81C122.264 505.881 135.74 501.621 160.908 492.188C205.849 475.345 225.911 471.112 260.784 471.112H278.558L289.983 473.153C302.425 475.375 321.826 481.546 331.377 486.318C358.773 500.007 383.519 526.828 393.685 553.851C395.183 557.833 396.671 561.095 396.992 561.101C398.071 561.121 404.772 550.667 407.486 544.73C412.24 534.331 413.998 525.732 414.61 509.88L415.179 495.147L418.196 499.88C431.08 520.091 438.173 553.913 435.859 584.112C433.203 618.781 422.353 645.745 398.839 676.112C386.555 691.976 364.324 712.407 347.503 723.291C344.255 725.393 342.005 727.12 342.503 727.13C343.001 727.14 347.683 727.807 352.908 728.612C387.477 733.94 428.825 724.146 461.158 702.972C464.443 700.82 466.908 699.745 466.908 700.463C466.908 702.446 455.616 720.842 449.22 729.277C419.343 768.683 382.601 797.386 314.883 834.224L299.692 842.488L302.05 843.414C306.033 844.979 337.784 845.471 351.577 844.181C410.86 838.638 468.954 815.478 513.908 779.464C528.593 767.699 544.566 750.627 557.231 733.162C559.803 729.614 561.908 727.051 561.908 727.466C561.908 727.881 560.749 732.358 559.333 737.416C553.129 759.571 538.207 794.062 527.097 811.926L521.926 820.241L524.167 819.559C529.533 817.925 547.084 808.164 559.23 800.058C603.424 770.566 640.879 729.078 666.612 681.112C671.069 672.805 681.908 648.951 681.908 647.45C681.908 646.924 682.575 645.621 683.39 644.553L684.873 642.612L684.411 645.612C684.158 647.262 683.235 653.787 682.361 660.112C678.008 691.622 670.835 716.672 657.2 747.978L656.605 749.345L658.601 748.276C659.699 747.689 665.28 742.317 671.003 736.339C700.859 705.153 718.36 666.863 726.411 615.112C727.379 608.892 728.278 594.921 728.617 580.836C728.932 567.759 729.391 557.261 729.636 557.507C729.882 557.753 730.473 559.452 730.95 561.283C731.427 563.114 733.201 569.337 734.894 575.112C742.095 599.688 745.044 627.443 743.208 653.362C742.75 659.824 742.626 665.112 742.933 665.112C743.871 665.112 757.577 641.091 761.298 632.924C772.456 608.436 778.914 577.93 778.905 549.756C778.897 528.411 774.854 500.802 769.295 484.133C764.235 468.96 752.347 446.499 745.606 439.377C740.383 433.857 743.449 434.548 753.637 441.187C766.853 449.797 787.2 470.048 795.72 483.07L801.908 492.529V489.995C801.908 485.959 798.069 465.644 794.938 453.112C785.219 414.214 767.81 375.279 746.648 345.112C720.222 307.441 690.475 279.269 648.409 252.076C639.494 246.313 614.774 233.112 612.898 233.112C612.498 233.112 612.113 235.616 612.043 238.676C611.888 245.376 607.906 257.748 603.694 264.612C594.565 279.491 579.881 290.84 563.754 295.484C555.848 297.761 554.822 297.523 559.426 294.48C575.122 284.108 588.966 263.651 594.562 242.56L597.202 232.612L597.241 217.612L597.279 202.612L595.177 193.541C586.397 155.655 555.504 104.245 511.995 55.112C492.102 32.648 463.591 4.312 457.388 0.840996L455.885 0L453.92 4.583ZM215.908 487.722C197.001 490.251 178.344 495.815 149.873 507.416C145.179 509.328 136.766 512.304 131.177 514.029L121.015 517.165L122.428 521.168C126.179 531.801 137.031 543.422 148.368 548.946C166.065 557.569 184.586 557.143 217.908 547.345C264.861 533.539 287.34 530.514 312.572 534.606C321.658 536.08 339.232 541.364 341.682 543.359C344.435 545.601 344.022 542.897 340.797 537.564C326.884 514.559 302.467 497.737 272.682 490.636C252.894 485.918 235.912 485.046 215.908 487.722Z" fill="#2563eb"/>
</svg>
